<svg width="20" height="11" viewBox="0 0 20 11" fill="none" xmlns="http://www.w3.org/2000/svg">
<path d="M19.375 7.90624C19.2894 7.95509 19.1949 7.98656 19.0971 7.99886C18.9992 8.01116 18.8999 8.00405 18.8048 7.97793C18.7097 7.9518 18.6207 7.90718 18.5429 7.84662C18.4651 7.78606 18.3999 7.71074 18.3513 7.62499L16.57 4.51249C15.5344 5.21269 14.3921 5.74017 13.1875 6.07436L13.7378 9.37624C13.7541 9.47344 13.751 9.57289 13.7288 9.6689C13.7065 9.76492 13.6656 9.85561 13.6083 9.9358C13.551 10.016 13.4785 10.0841 13.3949 10.1362C13.3113 10.1884 13.2182 10.2235 13.121 10.2397C13.081 10.2462 13.0405 10.2497 13 10.25C12.8226 10.2497 12.651 10.1866 12.5157 10.0717C12.3805 9.9569 12.2903 9.79783 12.2613 9.6228L11.7203 6.38092C10.5796 6.53967 9.42233 6.53967 8.28158 6.38092L7.74064 9.6228C7.71153 9.79815 7.62109 9.95746 7.48545 10.0723C7.3498 10.1872 7.17776 10.2502 7.00001 10.25C6.95856 10.2498 6.91718 10.2464 6.87626 10.2397C6.77904 10.2235 6.68596 10.1884 6.60233 10.1362C6.5187 10.0841 6.44617 10.016 6.38888 9.9358C6.33159 9.85561 6.29067 9.76492 6.26845 9.6689C6.24623 9.57289 6.24315 9.47344 6.25939 9.37624L6.81251 6.07436C5.60842 5.73911 4.4667 5.21068 3.43189 4.50967L1.65626 7.62499C1.55681 7.79829 1.39258 7.92498 1.19971 7.9772C1.00684 8.02942 0.801128 8.00288 0.627826 7.90342C0.454524 7.80397 0.327828 7.63974 0.275611 7.44687C0.223394 7.254 0.249932 7.04829 0.349388 6.87499L2.22439 3.59374C1.56579 3.02475 0.960186 2.39718 0.415013 1.71874C0.347025 1.64283 0.295219 1.55386 0.262759 1.45726C0.230299 1.36066 0.217865 1.25846 0.226217 1.15689C0.234568 1.05533 0.26353 0.956536 0.311334 0.866537C0.359138 0.776539 0.424781 0.697227 0.504257 0.633442C0.583733 0.569657 0.675374 0.522738 0.773586 0.495548C0.871798 0.468359 0.974521 0.461469 1.07548 0.4753C1.17645 0.48913 1.27353 0.523392 1.36082 0.575992C1.4481 0.628592 1.52374 0.698428 1.58314 0.781236C3.13939 2.70686 5.86189 4.99999 10 4.99999C14.1381 4.99999 16.8606 2.70405 18.4169 0.781236C18.4756 0.696733 18.5511 0.625216 18.6386 0.571135C18.7262 0.517053 18.8239 0.481565 18.9257 0.466877C19.0276 0.45219 19.1314 0.458617 19.2306 0.48576C19.3299 0.512902 19.4225 0.560179 19.5027 0.624649C19.5829 0.689118 19.649 0.769402 19.6968 0.860505C19.7447 0.951608 19.7732 1.05158 19.7808 1.1542C19.7883 1.25683 19.7747 1.3599 19.7407 1.45702C19.7067 1.55414 19.653 1.64323 19.5831 1.71874C19.038 2.39718 18.4324 3.02475 17.7738 3.59374L19.6488 6.87499C19.6991 6.96052 19.732 7.05519 19.7454 7.15352C19.7589 7.25184 19.7527 7.35186 19.7273 7.44779C19.7018 7.54371 19.6576 7.63362 19.5971 7.71232C19.5366 7.79101 19.4611 7.85693 19.375 7.90624Z" fill="#5E6E7A"/>
</svg>
