<svg width="117" height="86" viewBox="0 0 117 86" fill="none" xmlns="http://www.w3.org/2000/svg">
<path d="M54.2459 1.89866C51.2586 2.30854 48.0528 3.30762 43.4384 5.357C34.0152 9.48139 31.1251 10.1987 23.8877 10.1987C18.1561 10.1987 17.2575 10.0194 9.04862 7.61133C5.96423 6.71472 3.26842 5.97182 3.04984 5.97182C2.85555 5.97182 2.32125 6.27923 1.90838 6.66349C1.15549 7.32954 1.13121 7.40639 1.22835 8.91781C1.37407 10.6086 1.73837 11.5308 2.80698 12.8116C3.21985 13.3496 9.55864 17.4228 19.6376 23.6734C28.5264 29.1811 36.201 33.8947 36.711 34.1765C37.1967 34.4583 38.9454 35.2012 40.5725 35.816C42.1997 36.4564 44.1184 37.3274 44.8713 37.7629C48.9514 40.1709 52.1815 43.578 55.8245 49.3163C57.2331 51.545 58.4232 53.3382 58.496 53.3382C58.5689 53.3382 59.7589 51.545 61.1675 49.3163C65.9763 41.7336 69.7407 38.4033 76.4681 35.816C78.0953 35.1756 79.6496 34.5351 79.941 34.3814C80.2325 34.2277 87.9556 29.4629 97.0873 23.8015C114.525 13.0166 114.719 12.8629 115.472 10.6342C115.642 10.1218 115.788 9.14836 115.812 8.48231C115.812 7.45762 115.715 7.20145 115.059 6.63787C114.647 6.27923 114.136 5.97182 113.942 5.97182C113.724 5.97182 111.028 6.71472 107.943 7.61133C99.8074 10.0194 98.8117 10.1731 93.2258 10.1987C86.0127 10.1987 83.244 9.53262 74.0394 5.53632C71.295 4.35793 68.0892 3.10268 66.8749 2.76965C62.8676 1.69373 58.3017 1.3607 54.2459 1.89866Z" fill="black"/>
<path d="M10.9915 30.8975C6.10995 36.3283 3.41414 42.4509 2.61269 49.9055C1.88409 56.6685 3.80273 64.5074 7.61571 70.5018C15.0474 82.1833 29.1822 87.1787 41.9812 82.6701C44.5555 81.7735 48.2957 79.8266 48.2957 79.4167C48.2957 79.2117 45.2113 72.0645 45.0413 71.8852C44.9927 71.8339 43.9484 72.167 42.6855 72.6281C40.5483 73.3966 40.184 73.4478 37.1239 73.4735C34.3552 73.4735 33.5537 73.371 32.0237 72.8843C26.9235 71.1935 23.232 67.8633 20.9733 62.9704C18.5689 57.7188 18.5204 52.083 20.8519 46.8314C22.3576 43.4243 24.3734 40.9395 27.3607 38.8901C27.9435 38.4802 28.3078 38.0703 28.2107 37.9679C27.7735 37.5067 13.5173 28.7712 13.2259 28.7712C13.0316 28.7712 12.0359 29.7191 10.9915 30.8975Z" fill="black"/>
<path d="M100.026 30.8719C98.2288 32.0247 94.9015 34.0997 92.6429 35.5086C89.2428 37.6092 88.587 38.1216 88.9028 38.3521C92.91 41.3237 94.4158 43.0657 96.0187 46.5753C97.2816 49.3676 97.8402 51.8268 97.8402 54.7728C97.8402 57.7188 97.2816 60.1781 96.0187 62.9704C93.7601 67.8633 90.0685 71.1935 84.9683 72.8843C83.4383 73.371 82.6368 73.4735 79.8682 73.4735C76.8081 73.4479 76.4438 73.3966 74.3065 72.6281C73.0437 72.167 71.9993 71.834 71.9508 71.8852C71.7807 72.0645 68.6964 79.2117 68.6964 79.4167C68.6964 79.8266 72.4365 81.7735 75.0109 82.6701C83.924 85.821 93.3958 84.5145 101.216 79.058C103.742 77.2905 107.725 73.1404 109.328 70.6043C113.214 64.4306 115.108 56.6941 114.379 49.8799C113.578 42.4765 110.858 36.3284 106 30.8975C104.956 29.7191 103.912 28.7713 103.693 28.7969C103.475 28.7969 101.823 29.7447 100.026 30.8719Z" fill="black"/>
<path d="M34.3552 43.9111C31.6108 44.6027 28.6964 47.2157 27.3364 50.2129C26.6078 51.8524 26.5592 52.1342 26.5592 54.7984C26.5592 57.5395 26.5835 57.6676 27.4821 59.5632C29.425 63.7389 33.3352 66.1725 37.6096 65.8395C40.8883 65.6089 43.6326 64.0463 45.5027 61.3565C47.8342 58.0006 48.1742 53.287 46.3285 49.47C45.6484 48.0611 43.3412 45.6274 41.9812 44.9101C39.7711 43.7061 36.7596 43.3219 34.3552 43.9111ZM39.2368 51.8781C40.1354 52.749 40.524 53.7225 40.524 55.029C40.524 56.0281 40.4025 56.3611 39.5768 57.2577C38.7268 58.2311 38.5325 58.3336 37.1967 58.4361C35.7881 58.5386 35.691 58.5129 34.7438 57.6163C32.4123 55.3876 33.238 51.75 36.2738 51.0583C37.2939 50.8277 38.5082 51.1608 39.2368 51.8781Z" fill="black"/>
<path d="M77.1481 43.9623C74.6709 44.7052 71.7565 47.2157 70.615 49.5725C68.7935 53.3383 69.1821 58.1287 71.5622 61.4333C75.5209 66.9411 83.1711 67.4278 87.6156 62.458C89.7771 60.05 90.7 57.3346 90.4814 53.9531C90.2628 49.9824 88.0527 46.5497 84.5798 44.7308C83.0011 43.9111 82.5397 43.8086 80.5482 43.7318C79.1396 43.6549 77.8524 43.7574 77.1481 43.9623ZM81.9325 51.5963C84.1912 53.0309 84.0697 56.8991 81.714 58.0775C80.4268 58.7179 78.8239 58.6154 77.9252 57.8213C75.4723 55.6182 76.2009 51.7756 79.2367 51.0583C80.1596 50.8278 80.9854 50.9815 81.9325 51.5963Z" fill="black"/>
<path d="M52.5944 63.995L50.9672 66.9154L54.6587 75.3691C56.6745 80.0315 58.3989 83.8485 58.496 83.8485C58.5932 83.8485 60.3175 80.0315 62.3333 75.3691L66.0248 66.9154L64.3976 63.995C63.4748 62.3812 62.6733 61.0491 62.6004 61.0491C62.5276 61.0491 62.0904 61.587 61.6533 62.2274C59.8803 64.8404 56.8688 64.7636 55.193 62.0737C54.8287 61.5102 54.4887 61.0491 54.3916 61.0491C54.3187 61.0491 53.5173 62.3812 52.5944 63.995Z" fill="black"/>
</svg>
